<svg width="968" height="320" viewBox="0 0 968 320" fill="none" xmlns="http://www.w3.org/2000/svg">
<rect width="160" height="160" transform="matrix(1 0 0 -1 0 160)" fill="#332D64"/>
<rect width="160" height="160" transform="matrix(1 0 0 -1 160 320)" fill="#332D64"/>
<path d="M160 160H320V0H160V160Z" fill="#D00F46"/>
<rect width="160" height="160" transform="matrix(1 0 0 -1 0 320)" fill="#D00F46"/>
<path d="M409.38 267.38C403.937 267.38 398.915 266.383 394.315 264.39C389.792 262.32 386.073 259.407 383.16 255.65L393.51 243.23C395.733 246.143 398.072 248.367 400.525 249.9C402.978 251.357 405.623 252.085 408.46 252.085C416.05 252.085 419.845 247.638 419.845 238.745V200.45H391.555V185.5H438.36V237.71C438.36 247.677 435.907 255.113 431 260.02C426.093 264.927 418.887 267.38 409.38 267.38ZM484.937 266.92C478.343 266.92 472.478 265.54 467.342 262.78C462.282 260.02 458.257 256.263 455.267 251.51C452.353 246.68 450.897 241.198 450.897 235.065C450.897 228.855 452.353 223.373 455.267 218.62C458.257 213.79 462.282 210.033 467.342 207.35C472.478 204.59 478.343 203.21 484.937 203.21C491.453 203.21 497.28 204.59 502.417 207.35C507.553 210.033 511.578 213.752 514.492 218.505C517.405 223.258 518.862 228.778 518.862 235.065C518.862 241.198 517.405 246.68 514.492 251.51C511.578 256.263 507.553 260.02 502.417 262.78C497.28 265.54 491.453 266.92 484.937 266.92ZM484.937 252.2C487.927 252.2 490.61 251.51 492.987 250.13C495.363 248.75 497.242 246.795 498.622 244.265C500.002 241.658 500.692 238.592 500.692 235.065C500.692 231.462 500.002 228.395 498.622 225.865C497.242 223.335 495.363 221.38 492.987 220C490.61 218.62 487.927 217.93 484.937 217.93C481.947 217.93 479.263 218.62 476.887 220C474.51 221.38 472.593 223.335 471.137 225.865C469.757 228.395 469.067 231.462 469.067 235.065C469.067 238.592 469.757 241.658 471.137 244.265C472.593 246.795 474.51 248.75 476.887 250.13C479.263 251.51 481.947 252.2 484.937 252.2ZM556.958 266.92C551.822 266.92 547.222 265.923 543.158 263.93C539.172 261.937 536.067 258.908 533.843 254.845C531.62 250.705 530.508 245.453 530.508 239.09V204.13H548.448V236.445C548.448 241.582 549.522 245.377 551.668 247.83C553.892 250.207 556.997 251.395 560.983 251.395C563.743 251.395 566.197 250.82 568.343 249.67C570.49 248.443 572.177 246.603 573.403 244.15C574.63 241.62 575.243 238.477 575.243 234.72V204.13H593.183V266H576.163V248.98L579.268 253.925C577.198 258.218 574.132 261.477 570.068 263.7C566.082 265.847 561.712 266.92 556.958 266.92ZM609.803 266V204.13H626.938V221.61L624.523 216.55C626.363 212.18 629.315 208.883 633.378 206.66C637.442 204.36 642.387 203.21 648.213 203.21V219.77C647.447 219.693 646.757 219.655 646.143 219.655C645.53 219.578 644.878 219.54 644.188 219.54C639.282 219.54 635.295 220.958 632.228 223.795C629.238 226.555 627.743 230.887 627.743 236.79V266H609.803ZM696.598 203.21C701.505 203.21 705.875 204.207 709.708 206.2C713.618 208.117 716.685 211.107 718.908 215.17C721.131 219.157 722.243 224.293 722.243 230.58V266H704.303V233.34C704.303 228.357 703.191 224.677 700.968 222.3C698.821 219.923 695.755 218.735 691.768 218.735C688.931 218.735 686.363 219.348 684.063 220.575C681.84 221.725 680.076 223.527 678.773 225.98C677.546 228.433 676.933 231.577 676.933 235.41V266H658.993V204.13H676.128V221.265L672.908 216.09C675.131 211.95 678.313 208.768 682.453 206.545C686.593 204.322 691.308 203.21 696.598 203.21ZM776.455 266V253.925L775.305 251.28V229.66C775.305 225.827 774.116 222.837 771.74 220.69C769.44 218.543 765.875 217.47 761.045 217.47C757.748 217.47 754.49 218.007 751.27 219.08C748.126 220.077 745.443 221.457 743.22 223.22L736.78 210.685C740.153 208.308 744.216 206.468 748.97 205.165C753.723 203.862 758.553 203.21 763.46 203.21C772.89 203.21 780.211 205.433 785.425 209.88C790.638 214.327 793.245 221.265 793.245 230.695V266H776.455ZM757.595 266.92C752.765 266.92 748.625 266.115 745.175 264.505C741.725 262.818 739.08 260.557 737.24 257.72C735.4 254.883 734.48 251.702 734.48 248.175C734.48 244.495 735.361 241.275 737.125 238.515C738.965 235.755 741.84 233.608 745.75 232.075C749.66 230.465 754.758 229.66 761.045 229.66H777.49V240.125H763C758.783 240.125 755.87 240.815 754.26 242.195C752.726 243.575 751.96 245.3 751.96 247.37C751.96 249.67 752.841 251.51 754.605 252.89C756.445 254.193 758.936 254.845 762.08 254.845C765.07 254.845 767.753 254.155 770.13 252.775C772.506 251.318 774.231 249.21 775.305 246.45L778.065 254.73C776.761 258.717 774.385 261.745 770.935 263.815C767.485 265.885 763.038 266.92 757.595 266.92ZM809.481 266V180.67H827.421V266H809.481Z" fill="#D00F46"/>
<path d="M414.48 117.84H453.24V136.2H414.48V117.84ZM416.16 165H392.4V81H458.28V99.36H416.16V165ZM468.312 165V99.96H491.112V165H468.312ZM479.712 92.76C475.552 92.76 472.192 91.6 469.632 89.28C467.072 86.96 465.792 84.08 465.792 80.64C465.792 77.2 467.072 74.32 469.632 72C472.192 69.68 475.552 68.52 479.712 68.52C483.872 68.52 487.232 69.64 489.792 71.88C492.352 74.04 493.632 76.84 493.632 80.28C493.632 83.88 492.352 86.88 489.792 89.28C487.312 91.6 483.952 92.76 479.712 92.76ZM548.289 98.88C553.329 98.88 557.889 99.92 561.969 102C566.049 104 569.249 107.12 571.569 111.36C573.969 115.6 575.169 121.08 575.169 127.8V165H552.369V131.52C552.369 126.88 551.409 123.52 549.489 121.44C547.649 119.28 545.049 118.2 541.689 118.2C539.289 118.2 537.089 118.76 535.089 119.88C533.089 120.92 531.529 122.56 530.409 124.8C529.289 127.04 528.729 129.96 528.729 133.56V165H505.929V99.96H527.649V118.44L523.449 113.04C525.929 108.32 529.329 104.8 533.649 102.48C537.969 100.08 542.849 98.88 548.289 98.88ZM629.204 165V152.88L627.644 149.88V127.56C627.644 123.96 626.524 121.2 624.284 119.28C622.124 117.28 618.644 116.28 613.844 116.28C610.724 116.28 607.564 116.8 604.364 117.84C601.164 118.8 598.444 120.16 596.204 121.92L588.524 106.44C592.204 104.04 596.604 102.2 601.724 100.92C606.924 99.56 612.084 98.88 617.204 98.88C627.764 98.88 635.924 101.32 641.684 106.2C647.524 111 650.444 118.56 650.444 128.88V165H629.204ZM610.004 166.08C604.804 166.08 600.404 165.2 596.804 163.44C593.204 161.68 590.444 159.28 588.524 156.24C586.684 153.2 585.764 149.8 585.764 146.04C585.764 142.04 586.764 138.6 588.764 135.72C590.844 132.76 594.004 130.52 598.244 129C602.484 127.4 607.964 126.6 614.684 126.6H630.044V138.48H617.804C614.124 138.48 611.524 139.08 610.004 140.28C608.564 141.48 607.844 143.08 607.844 145.08C607.844 147.08 608.604 148.68 610.124 149.88C611.644 151.08 613.724 151.68 616.364 151.68C618.844 151.68 621.084 151.08 623.084 149.88C625.164 148.6 626.684 146.68 627.644 144.12L630.764 152.52C629.564 157 627.204 160.4 623.684 162.72C620.244 164.96 615.684 166.08 610.004 166.08ZM707.196 98.88C712.236 98.88 716.796 99.92 720.876 102C724.956 104 728.156 107.12 730.476 111.36C732.876 115.6 734.076 121.08 734.076 127.8V165H711.276V131.52C711.276 126.88 710.316 123.52 708.396 121.44C706.556 119.28 703.956 118.2 700.596 118.2C698.196 118.2 695.996 118.76 693.996 119.88C691.996 120.92 690.436 122.56 689.316 124.8C688.196 127.04 687.636 129.96 687.636 133.56V165H664.836V99.96H686.556V118.44L682.356 113.04C684.836 108.32 688.236 104.8 692.556 102.48C696.876 100.08 701.756 98.88 707.196 98.88ZM782.451 166.08C775.251 166.08 768.811 164.64 763.131 161.76C757.531 158.88 753.131 154.92 749.931 149.88C746.731 144.76 745.131 138.92 745.131 132.36C745.131 125.8 746.731 120 749.931 114.96C753.131 109.92 757.531 106 763.131 103.2C768.811 100.32 775.251 98.88 782.451 98.88C789.811 98.88 796.171 100.44 801.531 103.56C806.891 106.68 810.691 111.08 812.931 116.76L795.291 125.76C793.771 122.72 791.891 120.52 789.651 119.16C787.411 117.72 784.971 117 782.331 117C779.691 117 777.291 117.6 775.131 118.8C772.971 120 771.251 121.76 769.971 124.08C768.771 126.32 768.171 129.08 768.171 132.36C768.171 135.72 768.771 138.56 769.971 140.88C771.251 143.2 772.971 144.96 775.131 146.16C777.291 147.36 779.691 147.96 782.331 147.96C784.971 147.96 787.411 147.28 789.651 145.92C791.891 144.48 793.771 142.24 795.291 139.2L812.931 148.2C810.691 153.88 806.891 158.28 801.531 161.4C796.171 164.52 789.811 166.08 782.451 166.08ZM821.281 165V99.96H844.081V165H821.281ZM832.681 92.76C828.521 92.76 825.161 91.6 822.601 89.28C820.041 86.96 818.761 84.08 818.761 80.64C818.761 77.2 820.041 74.32 822.601 72C825.161 69.68 828.521 68.52 832.681 68.52C836.841 68.52 840.201 69.64 842.761 71.88C845.321 74.04 846.601 76.84 846.601 80.28C846.601 83.88 845.321 86.88 842.761 89.28C840.281 91.6 836.921 92.76 832.681 92.76ZM898.618 165V152.88L897.058 149.88V127.56C897.058 123.96 895.938 121.2 893.698 119.28C891.538 117.28 888.058 116.28 883.258 116.28C880.138 116.28 876.978 116.8 873.778 117.84C870.578 118.8 867.858 120.16 865.618 121.92L857.938 106.44C861.618 104.04 866.018 102.2 871.138 100.92C876.338 99.56 881.498 98.88 886.618 98.88C897.178 98.88 905.338 101.32 911.098 106.2C916.938 111 919.858 118.56 919.858 128.88V165H898.618ZM879.418 166.08C874.218 166.08 869.818 165.2 866.218 163.44C862.618 161.68 859.858 159.28 857.938 156.24C856.098 153.2 855.178 149.8 855.178 146.04C855.178 142.04 856.178 138.6 858.178 135.72C860.258 132.76 863.418 130.52 867.658 129C871.898 127.4 877.378 126.6 884.098 126.6H899.458V138.48H887.218C883.538 138.48 880.938 139.08 879.418 140.28C877.978 141.48 877.258 143.08 877.258 145.08C877.258 147.08 878.018 148.68 879.538 149.88C881.058 151.08 883.138 151.68 885.778 151.68C888.258 151.68 890.498 151.08 892.498 149.88C894.578 148.6 896.098 146.68 897.058 144.12L900.178 152.52C898.978 157 896.618 160.4 893.098 162.72C889.658 164.96 885.098 166.08 879.418 166.08ZM934.25 165V75.96H957.05V165H934.25Z" fill="#332D64"/>
</svg>
