<svg width="935" height="320" viewBox="0 0 935 320" fill="none" xmlns="http://www.w3.org/2000/svg">
<rect width="160" height="160" transform="matrix(1 0 0 -1 615 160)" fill="#332D64"/>
<rect width="160" height="160" transform="matrix(1 0 0 -1 775 320)" fill="#332D64"/>
<path d="M775 160H935V0H775V160Z" fill="#D00F46"/>
<rect width="160" height="160" transform="matrix(1 0 0 -1 615 320)" fill="#D00F46"/>
<path d="M134.44 278.44C128.76 278.44 123.52 277.4 118.72 275.32C114 273.16 110.12 270.12 107.08 266.2L117.88 253.24C120.2 256.28 122.64 258.6 125.2 260.2C127.76 261.72 130.52 262.48 133.48 262.48C141.4 262.48 145.36 257.84 145.36 248.56V208.6H115.84V193H164.68V247.48C164.68 257.88 162.12 265.64 157 270.76C151.88 275.88 144.36 278.44 134.44 278.44ZM213.282 277.96C206.402 277.96 200.282 276.52 194.922 273.64C189.642 270.76 185.442 266.84 182.322 261.88C179.282 256.84 177.762 251.12 177.762 244.72C177.762 238.24 179.282 232.52 182.322 227.56C185.442 222.52 189.642 218.6 194.922 215.8C200.282 212.92 206.402 211.48 213.282 211.48C220.082 211.48 226.162 212.92 231.522 215.8C236.882 218.6 241.082 222.48 244.122 227.44C247.162 232.4 248.682 238.16 248.682 244.72C248.682 251.12 247.162 256.84 244.122 261.88C241.082 266.84 236.882 270.76 231.522 273.64C226.162 276.52 220.082 277.96 213.282 277.96ZM213.282 262.6C216.402 262.6 219.202 261.88 221.682 260.44C224.162 259 226.122 256.96 227.562 254.32C229.002 251.6 229.722 248.4 229.722 244.72C229.722 240.96 229.002 237.76 227.562 235.12C226.122 232.48 224.162 230.44 221.682 229C219.202 227.56 216.402 226.84 213.282 226.84C210.162 226.84 207.362 227.56 204.882 229C202.402 230.44 200.402 232.48 198.882 235.12C197.442 237.76 196.722 240.96 196.722 244.72C196.722 248.4 197.442 251.6 198.882 254.32C200.402 256.96 202.402 259 204.882 260.44C207.362 261.88 210.162 262.6 213.282 262.6ZM288.435 277.96C283.075 277.96 278.275 276.92 274.035 274.84C269.875 272.76 266.635 269.6 264.315 265.36C261.995 261.04 260.835 255.56 260.835 248.92V212.44H279.555V246.16C279.555 251.52 280.675 255.48 282.915 258.04C285.235 260.52 288.475 261.76 292.635 261.76C295.515 261.76 298.075 261.16 300.315 259.96C302.555 258.68 304.315 256.76 305.595 254.2C306.875 251.56 307.515 248.28 307.515 244.36V212.44H326.235V277H308.475V259.24L311.715 264.4C309.555 268.88 306.355 272.28 302.115 274.6C297.955 276.84 293.395 277.96 288.435 277.96ZM343.578 277V212.44H361.458V230.68L358.938 225.4C360.858 220.84 363.938 217.4 368.178 215.08C372.418 212.68 377.578 211.48 383.658 211.48V228.76C382.858 228.68 382.138 228.64 381.498 228.64C380.858 228.56 380.178 228.52 379.458 228.52C374.338 228.52 370.178 230 366.978 232.96C363.858 235.84 362.298 240.36 362.298 246.52V277H343.578ZM434.146 211.48C439.266 211.48 443.826 212.52 447.826 214.6C451.906 216.6 455.106 219.72 457.426 223.96C459.746 228.12 460.906 233.48 460.906 240.04V277H442.186V242.92C442.186 237.72 441.026 233.88 438.706 231.4C436.466 228.92 433.266 227.68 429.106 227.68C426.146 227.68 423.466 228.32 421.066 229.6C418.746 230.8 416.906 232.68 415.546 235.24C414.266 237.8 413.626 241.08 413.626 245.08V277H394.906V212.44H412.786V230.32L409.426 224.92C411.746 220.6 415.066 217.28 419.386 214.96C423.706 212.64 428.626 211.48 434.146 211.48ZM517.474 277V264.4L516.274 261.64V239.08C516.274 235.08 515.034 231.96 512.554 229.72C510.154 227.48 506.434 226.36 501.394 226.36C497.954 226.36 494.554 226.92 491.194 228.04C487.914 229.08 485.114 230.52 482.794 232.36L476.074 219.28C479.594 216.8 483.834 214.88 488.794 213.52C493.754 212.16 498.794 211.48 503.914 211.48C513.754 211.48 521.394 213.8 526.834 218.44C532.274 223.08 534.994 230.32 534.994 240.16V277H517.474ZM497.794 277.96C492.754 277.96 488.434 277.12 484.834 275.44C481.234 273.68 478.474 271.32 476.554 268.36C474.634 265.4 473.674 262.08 473.674 258.4C473.674 254.56 474.594 251.2 476.434 248.32C478.354 245.44 481.354 243.2 485.434 241.6C489.514 239.92 494.834 239.08 501.394 239.08H518.554V250H503.434C499.034 250 495.994 250.72 494.314 252.16C492.714 253.6 491.914 255.4 491.914 257.56C491.914 259.96 492.834 261.88 494.674 263.32C496.594 264.68 499.194 265.36 502.474 265.36C505.594 265.36 508.394 264.64 510.874 263.2C513.354 261.68 515.154 259.48 516.274 256.6L519.154 265.24C517.794 269.4 515.314 272.56 511.714 274.72C508.114 276.88 503.474 277.96 497.794 277.96ZM551.937 277V187.96H570.657V277H551.937Z" fill="#D00F46"/>
<path d="M30.48 88.84H69.24V107.2H30.48V88.84ZM32.16 136H8.4V52H74.28V70.36H32.16V136ZM84.3122 136V70.96H107.112V136H84.3122ZM95.7122 63.76C91.5522 63.76 88.1922 62.6 85.6322 60.28C83.0722 57.96 81.7922 55.08 81.7922 51.64C81.7922 48.2 83.0722 45.32 85.6322 43C88.1922 40.68 91.5522 39.52 95.7122 39.52C99.8722 39.52 103.232 40.64 105.792 42.88C108.352 45.04 109.632 47.84 109.632 51.28C109.632 54.88 108.352 57.88 105.792 60.28C103.312 62.6 99.9522 63.76 95.7122 63.76ZM164.289 69.88C169.329 69.88 173.889 70.92 177.969 73C182.049 75 185.249 78.12 187.569 82.36C189.969 86.6 191.169 92.08 191.169 98.8V136H168.369V102.52C168.369 97.88 167.409 94.52 165.489 92.44C163.649 90.28 161.049 89.2 157.689 89.2C155.289 89.2 153.089 89.76 151.089 90.88C149.089 91.92 147.529 93.56 146.409 95.8C145.289 98.04 144.729 100.96 144.729 104.56V136H121.929V70.96H143.649V89.44L139.449 84.04C141.929 79.32 145.329 75.8 149.649 73.48C153.969 71.08 158.849 69.88 164.289 69.88ZM245.204 136V123.88L243.644 120.88V98.56C243.644 94.96 242.524 92.2 240.284 90.28C238.124 88.28 234.644 87.28 229.844 87.28C226.724 87.28 223.564 87.8 220.364 88.84C217.164 89.8 214.444 91.16 212.204 92.92L204.524 77.44C208.204 75.04 212.604 73.2 217.724 71.92C222.924 70.56 228.084 69.88 233.204 69.88C243.764 69.88 251.924 72.32 257.684 77.2C263.524 82 266.444 89.56 266.444 99.88V136H245.204ZM226.004 137.08C220.804 137.08 216.404 136.2 212.804 134.44C209.204 132.68 206.444 130.28 204.524 127.24C202.684 124.2 201.764 120.8 201.764 117.04C201.764 113.04 202.764 109.6 204.764 106.72C206.844 103.76 210.004 101.52 214.244 100C218.484 98.4 223.964 97.6 230.684 97.6H246.044V109.48H233.804C230.124 109.48 227.524 110.08 226.004 111.28C224.564 112.48 223.844 114.08 223.844 116.08C223.844 118.08 224.604 119.68 226.124 120.88C227.644 122.08 229.724 122.68 232.364 122.68C234.844 122.68 237.084 122.08 239.084 120.88C241.164 119.6 242.684 117.68 243.644 115.12L246.764 123.52C245.564 128 243.204 131.4 239.684 133.72C236.244 135.96 231.684 137.08 226.004 137.08ZM323.196 69.88C328.236 69.88 332.796 70.92 336.876 73C340.956 75 344.156 78.12 346.476 82.36C348.876 86.6 350.076 92.08 350.076 98.8V136H327.276V102.52C327.276 97.88 326.316 94.52 324.396 92.44C322.556 90.28 319.956 89.2 316.596 89.2C314.196 89.2 311.996 89.76 309.996 90.88C307.996 91.92 306.436 93.56 305.316 95.8C304.196 98.04 303.636 100.96 303.636 104.56V136H280.836V70.96H302.556V89.44L298.356 84.04C300.836 79.32 304.236 75.8 308.556 73.48C312.876 71.08 317.756 69.88 323.196 69.88ZM398.451 137.08C391.251 137.08 384.811 135.64 379.131 132.76C373.531 129.88 369.131 125.92 365.931 120.88C362.731 115.76 361.131 109.92 361.131 103.36C361.131 96.8 362.731 91 365.931 85.96C369.131 80.92 373.531 77 379.131 74.2C384.811 71.32 391.251 69.88 398.451 69.88C405.811 69.88 412.171 71.44 417.531 74.56C422.891 77.68 426.691 82.08 428.931 87.76L411.291 96.76C409.771 93.72 407.891 91.52 405.651 90.16C403.411 88.72 400.971 88 398.331 88C395.691 88 393.291 88.6 391.131 89.8C388.971 91 387.251 92.76 385.971 95.08C384.771 97.32 384.171 100.08 384.171 103.36C384.171 106.72 384.771 109.56 385.971 111.88C387.251 114.2 388.971 115.96 391.131 117.16C393.291 118.36 395.691 118.96 398.331 118.96C400.971 118.96 403.411 118.28 405.651 116.92C407.891 115.48 409.771 113.24 411.291 110.2L428.931 119.2C426.691 124.88 422.891 129.28 417.531 132.4C412.171 135.52 405.811 137.08 398.451 137.08ZM437.281 136V70.96H460.081V136H437.281ZM448.681 63.76C444.521 63.76 441.161 62.6 438.601 60.28C436.041 57.96 434.761 55.08 434.761 51.64C434.761 48.2 436.041 45.32 438.601 43C441.161 40.68 444.521 39.52 448.681 39.52C452.841 39.52 456.201 40.64 458.761 42.88C461.321 45.04 462.601 47.84 462.601 51.28C462.601 54.88 461.321 57.88 458.761 60.28C456.281 62.6 452.921 63.76 448.681 63.76ZM514.618 136V123.88L513.058 120.88V98.56C513.058 94.96 511.938 92.2 509.698 90.28C507.538 88.28 504.058 87.28 499.258 87.28C496.138 87.28 492.978 87.8 489.778 88.84C486.578 89.8 483.858 91.16 481.618 92.92L473.938 77.44C477.618 75.04 482.018 73.2 487.138 71.92C492.338 70.56 497.498 69.88 502.618 69.88C513.178 69.88 521.338 72.32 527.098 77.2C532.938 82 535.858 89.56 535.858 99.88V136H514.618ZM495.418 137.08C490.218 137.08 485.818 136.2 482.218 134.44C478.618 132.68 475.858 130.28 473.938 127.24C472.098 124.2 471.178 120.8 471.178 117.04C471.178 113.04 472.178 109.6 474.178 106.72C476.258 103.76 479.418 101.52 483.658 100C487.898 98.4 493.378 97.6 500.098 97.6H515.458V109.48H503.218C499.538 109.48 496.938 110.08 495.418 111.28C493.978 112.48 493.258 114.08 493.258 116.08C493.258 118.08 494.018 119.68 495.538 120.88C497.058 122.08 499.138 122.68 501.778 122.68C504.258 122.68 506.498 122.08 508.498 120.88C510.578 119.6 512.098 117.68 513.058 115.12L516.178 123.52C514.978 128 512.618 131.4 509.098 133.72C505.658 135.96 501.098 137.08 495.418 137.08ZM550.25 136V46.96H573.05V136H550.25Z" fill="#332D64"/>
</svg>
